<svg viewBox="0 0 512 512" xmlns="http://www.w3.org/2000/svg" width="100%" height="100%">
  <path d="M30.3 7.6c-4.8 5-7.6 12.1-7.6 20.9v457c0 8.8 2.8 15.9 7.6 20.9l1.6 1.6L259.4 256 261 254.4 31.9 6l-1.6 1.6z" fill="#00c0fd"/>
  <path d="M351.4 348.4L259.4 256.4l-1.6-1.6L351.4 163.6l4.2 2.4 109.8 62.4c31.4 17.8 31.4 46.9 0 64.8l-109.8 62.4-4.2-2.4z" fill="#ffeb3b"/>
  <path d="M355.6 350.8L259.4 254.6 30.3 483.7c9.5 10 25.1 11.2 43.1 1L355.6 350.8z" fill="#ff2d46"/>
  <path d="M355.6 161.2L73.4 1.3C55.4-8.9 39.8-7.7 30.3 2.3L259.4 231.4 355.6 161.2z" fill="#4caf50"/>
</svg>
